<?xml version="1.0" encoding="UTF-8"?>
<svg id="Layer_2" data-name="Layer 2" xmlns="http://www.w3.org/2000/svg" viewBox="0 0 903.39 205.93">
  <defs>
    <style>
      .cls-1 {
        fill: #fff;
      }

      .cls-2 {
        fill: #f89520;
      }
    </style>
  </defs>
  <g id="Layer_1-2" data-name="Layer 1">
    <path class="cls-1" d="M123.92,161.86H38.88c-21.47,0-38.88-17.41-38.88-38.88v-28.85c0-21.47,17.41-38.88,38.88-38.88h85.04c21.47,0,38.88,17.41,38.88,38.88v28.85c0,21.47-17.41,38.88-38.88,38.88Z"/>
    <polygon class="cls-1" points="37.1 205.93 37.1 161.86 75.98 161.86 37.1 205.93"/>
    <circle class="cls-2" cx="49.07" cy="107.87" r="12.3"/>
    <circle class="cls-2" cx="80.82" cy="107.87" r="12.3"/>
    <circle class="cls-2" cx="113.73" cy="107.87" r="12.3"/>
    <path class="cls-2" d="M212.88,101.94c-3.75,0-6.98-2.8-7.44-6.61-2.1-17.59-8.82-34.39-19.44-48.58-10.62-14.19-24.84-25.37-41.12-32.35-3.81-1.63-5.57-6.04-3.94-9.85,1.63-3.81,6.04-5.57,9.85-3.94,18.7,8.01,35.04,20.86,47.23,37.15,12.19,16.29,19.91,35.58,22.32,55.79.49,4.11-2.45,7.84-6.56,8.34-.3.04-.6.05-.9.05Z"/>
    <path class="cls-2" d="M186.29,101.9c-3.74,0-6.98-2.8-7.44-6.61-1.44-12.04-6.04-23.53-13.3-33.23-7.26-9.7-16.99-17.36-28.13-22.13-3.81-1.63-5.57-6.04-3.94-9.85,1.63-3.81,6.04-5.57,9.85-3.94,13.56,5.81,25.4,15.12,34.23,26.93,8.84,11.81,14.43,25.79,16.18,40.44.49,4.11-2.45,7.85-6.56,8.34-.3.04-.6.05-.9.05Z"/>
    <g>
      <path class="cls-1" d="M268.89,179.41c-14.87,1.33-27.2,2-37,2-6.53,0-11.33-1.53-14.4-4.6s-4.6-7.87-4.6-14.4v-32c0-7,1.58-12.08,4.75-15.25s8.25-4.75,15.25-4.75h36v14h-32c-4,0-6,2-6,6v32c0,1.53.45,2.75,1.35,3.65.9.9,2.05,1.35,3.45,1.35s2.93-.02,4.6-.05c1.67-.03,3.4-.08,5.2-.15,1.8-.07,3.62-.13,5.45-.2,1.83-.07,4.2-.2,7.1-.4,2.9-.2,6.52-.43,10.85-.7v13.5Z"/>
      <path class="cls-1" d="M339.89,161.41c0,7-1.58,12.08-4.75,15.25-3.17,3.17-8.25,4.75-15.25,4.75h-25c-7,0-12.08-1.58-15.25-4.75-3.17-3.17-4.75-8.25-4.75-15.25v-32c0-7,1.58-12.08,4.75-15.25,3.17-3.17,8.25-4.75,15.25-4.75h25c7,0,12.08,1.58,15.25,4.75,3.17,3.17,4.75,8.25,4.75,15.25v32ZM321.89,129.41c0-4-2-6-6-6h-17c-4,0-6,2-6,6v32c0,4,2,6,6,6h17c4,0,6-2,6-6v-32Z"/>
      <path class="cls-1" d="M409.89,141.41l-14,25h-14l-14-25v39h-18v-70h19l20,37,20-37h19v70h-18v-39Z"/>
      <path class="cls-1" d="M499.89,141.41l-14,25h-14l-14-25v39h-18v-70h19l20,37,20-37h19v70h-18v-39Z"/>
      <path class="cls-1" d="M585.39,180.41h-55.5v-70h55.5v14h-37.5v13.5h29.5v14h-29.5v14.5h37.5v14Z"/>
      <path class="cls-1" d="M654.39,180.41h-19l-24-42v42h-18v-70h19l24,42v-42h18v70Z"/>
      <path class="cls-1" d="M700.39,180.41h-18v-56h-21v-14h60v14h-21v56Z"/>
      <path class="cls-1" d="M761.39,180.41h-36v-14h9v-42h-9v-14h36v14h-9v42h9v14Z"/>
      <path class="cls-1" d="M815.39,110.41h18v51c0,7-1.58,12.08-4.75,15.25-3.17,3.17-8.25,4.75-15.25,4.75h-23c-7,0-12.08-1.58-15.25-4.75-3.17-3.17-4.75-8.25-4.75-15.25v-51h18v51c0,4,2,6,6,6h15c4,0,6-2,6-6v-51Z"/>
      <path class="cls-1" d="M843.29,165.91c18.27,1,30.63,1.5,37.1,1.5,1.53,0,2.75-.45,3.65-1.35.9-.9,1.35-2.12,1.35-3.65v-9h-23c-7,0-12.08-1.58-15.25-4.75-3.17-3.17-4.75-8.25-4.75-15.25v-3c0-7,1.58-12.08,4.75-15.25,3.17-3.17,8.25-4.75,15.25-4.75h35.1v14h-31.1c-4,0-6,2-6,6v2c0,4,2,6,6,6h18c6.53,0,11.33,1.53,14.4,4.6,3.07,3.07,4.6,7.87,4.6,14.4v5c0,6.53-1.53,11.33-4.6,14.4s-7.87,4.6-14.4,4.6c-3.4,0-7-.07-10.8-.2l-9.2-.4c-6.8-.33-13.83-.8-21.1-1.4v-13.5Z"/>
    </g>
  </g>
</svg>